<svg width="79" height="85" viewBox="0 0 79 85" fill="none" xmlns="http://www.w3.org/2000/svg">
<path d="M39.4998 84.8442C38.2886 84.8442 37.1623 84.529 36.1105 83.9836L25.3828 77.8282C23.7713 76.9711 24.5788 76.6594 25.064 76.5036C27.2386 75.8023 27.6423 75.6465 29.9019 74.3963C30.1428 74.2405 30.4686 74.3184 30.7094 74.4742L38.9367 79.2307C39.2555 79.3865 39.6628 79.3865 39.9036 79.2307L72.0867 61.2248C72.4055 61.069 72.5684 60.7573 72.5684 60.3678V24.434C72.5684 24.0444 72.409 23.7328 72.0867 23.5769L39.9036 5.65255C39.5813 5.49671 39.1775 5.49671 38.9367 5.65255L6.75359 23.5769C6.4313 23.7328 6.26838 24.1223 6.26838 24.434V60.3678C6.26838 60.6794 6.4313 61.069 6.75359 61.2248L15.544 66.1371C20.304 68.4746 23.2861 65.7475 23.2861 63.0205V27.5542C23.2861 27.0867 23.6898 26.6192 24.2565 26.6192H28.3684C28.8536 26.6192 29.3353 27.0088 29.3353 27.5542V63.0169C29.3353 69.1759 25.868 72.76 19.8188 72.76C17.963 72.76 16.5109 72.76 12.399 70.8121L3.93088 66.1371C2.91047 65.576 2.05834 64.7527 1.4625 63.7521C0.866667 62.7516 0.548721 61.6102 0.541504 60.4457V24.5119C0.541504 22.1744 1.83067 19.9928 3.93088 18.824L36.114 0.814632C37.1618 0.277312 38.3223 -0.00292969 39.4998 -0.00292969C40.6773 -0.00292969 41.8379 0.277312 42.8857 0.814632L75.0723 18.8205C77.169 19.9892 78.4582 22.1709 78.4582 24.5084V60.4421C78.4582 62.7796 77.169 64.9613 75.0723 66.1336L42.8857 84.1359C41.817 84.5991 40.6646 84.8378 39.4998 84.8371V84.8442ZM49.42 60.134C35.3065 60.134 32.4023 53.9007 32.4023 48.5988C32.4023 48.1313 32.8061 47.6638 33.3692 47.6638H37.5625C38.0478 47.6638 38.448 47.9755 38.448 48.443C39.0961 52.5725 40.9519 54.5984 49.5015 54.5984C56.2767 54.5984 59.1809 53.118 59.1809 49.6117C59.1809 47.5859 58.3734 46.1055 47.8086 45.0925C39.0146 44.2319 33.5321 42.3655 33.5321 35.5832C33.5321 29.2684 39.0146 25.5248 48.2123 25.5248C58.5363 25.5248 63.6186 28.9567 64.2632 36.4403C64.256 36.6936 64.1706 36.9386 64.0188 37.1415C63.8594 37.2973 63.6186 37.4532 63.3742 37.4532H59.1809C58.9772 37.4482 58.7806 37.3772 58.6209 37.2506C58.4611 37.1241 58.3469 36.9491 58.2955 36.7519C57.325 32.4665 54.8246 31.0605 48.2123 31.0605C40.789 31.0605 39.9036 33.5538 39.9036 35.4238C39.9036 37.6869 40.9519 38.3882 50.9536 39.6348C60.8738 40.8815 65.5523 42.6736 65.5523 49.3744C65.4709 56.2382 59.6661 60.134 49.42 60.134V60.134Z" fill="white"/>
</svg>
